# xmcd CD database file
#
# Track frame offsets:
#	150
#	21759
#	39627
#	60425
#	79763
#	95689
#	139779
#	166868
#	181159
#	204513
#	216214
#	236504
#	249879
#	261566
#	272277
#	284627
#	295603
#	307243
#	322350
#	338732
#
# Disc length: 4754 seconds
#
# Revision: 0
# Processed by: cddbd v1.5.2PL0 Copyright (c) Steve Scherf et al.
# Submitted via: CDex 1.79
#
DISCID=2b129014
DTITLE=Oscar Pettiford - The New OP Sextet and The OP Sextet and OP Modern Quintet and Basically Duke
DYEAR=1900
DGENRE=Jazz
TTITLE0=Pendulum at Falcon's Lair
TTITLE1=Tamalparis Love Song
TTITLE2=Jack The Fieldstalker
TTITLE3=Stockholm Sweetnin'
TTITLE4=Low and Behold
TTITLE5=Burt's Pad
TTITLE6=Marcel The Furrier
TTITLE7=Ondine
TTITLE8=Stardust
TTITLE9=East Lag
TTITLE10=Rhumblues
TTITLE11=Sextette
TTITLE12=Golden Touch
TTITLE13=Cable Car
TTITLE14=Trictatism
TTITLE15=Edge Of Love
TTITLE16=Rides Again
TTITLE17=Jack The Bear
TTITLE18=Tamalpals
TTITLE19=Swing Until The Girls Come Home
EXTD=
EXTT0=
EXTT1=
EXTT2=
EXTT3=
EXTT4=
EXTT5=
EXTT6=
EXTT7=
EXTT8=
EXTT9=
EXTT10=
EXTT11=
EXTT12=
EXTT13=
EXTT14=
EXTT15=
EXTT16=
EXTT17=
EXTT18=
EXTT19=
PLAYORDER=
